<svg xmlns="http://www.w3.org/2000/svg" xmlns:xlink="http://www.w3.org/1999/xlink" width="512" zoomAndPan="magnify" viewBox="0 0 384 383.999986" height="512" preserveAspectRatio="xMidYMid meet" version="1.0"><defs><clipPath id="c6ace207b6"><path d="M 0.359375 0.359375 L 384 0.359375 L 384 384 L 0.359375 384 Z M 0.359375 0.359375 " clip-rule="nonzero"/></clipPath><clipPath id="a6b2434575"><path d="M 160 175 L 210 175 L 210 225 L 160 225 Z M 160 175 " clip-rule="nonzero"/></clipPath><clipPath id="0dee4f7b36"><path d="M 143.558594 207.019531 L 185.496094 165.082031 L 220.015625 199.601562 L 178.078125 241.539062 Z M 143.558594 207.019531 " clip-rule="nonzero"/></clipPath><clipPath id="7c528ec403"><path d="M 169.820312 202.296875 L 196.246094 175.871094 L 209.222656 188.847656 L 182.796875 215.273438 L 197.640625 221.976562 L 160.820312 224.28125 L 163.121094 187.457031 Z M 169.820312 202.296875 " clip-rule="nonzero"/></clipPath><clipPath id="8aa2120123"><path d="M 0.800781 0.679688 L 49.28125 0.679688 L 49.28125 49.398438 L 0.800781 49.398438 Z M 0.800781 0.679688 " clip-rule="nonzero"/></clipPath><clipPath id="4a46dcd645"><path d="M -16.441406 32.019531 L 25.496094 -9.917969 L 60.015625 24.601562 L 18.078125 66.539062 Z M -16.441406 32.019531 " clip-rule="nonzero"/></clipPath><clipPath id="b9f131eb08"><path d="M 9.820312 27.296875 L 36.246094 0.871094 L 49.222656 13.847656 L 22.796875 40.273438 L 37.640625 46.976562 L 0.820312 49.28125 L 3.121094 12.457031 Z M 9.820312 27.296875 " clip-rule="nonzero"/></clipPath><clipPath id="d14b919914"><rect x="0" width="50" y="0" height="50"/></clipPath></defs><rect x="-38.4" width="460.8" fill="#ffffff" y="-38.399999" height="460.799983" fill-opacity="1"/><rect x="-38.4" width="460.8" fill="#000000" y="-38.399999" height="460.799983" fill-opacity="1"/><g clip-path="url(#c6ace207b6)"><path fill="#ffde59" d="M 203.296875 246.96875 C 194.960938 255.308594 183.417969 260.484375 170.683594 260.484375 C 157.945312 260.484375 146.40625 255.328125 138.046875 246.96875 C 129.707031 238.613281 124.53125 227.085938 124.53125 214.332031 C 124.53125 201.597656 129.6875 190.054688 138.046875 181.71875 C 146.386719 173.378906 157.929688 168.203125 170.683594 168.203125 C 180.160156 168.203125 188.972656 171.0625 196.316406 175.964844 L 226.5625 145.71875 C 219.925781 140.289062 212.523438 135.839844 204.566406 132.527344 C 194.179688 128.222656 182.730469 125.855469 170.699219 125.855469 C 146.257812 125.855469 124.136719 135.765625 108.144531 151.757812 C 92.132812 167.769531 82.21875 189.894531 82.21875 214.316406 C 82.21875 238.757812 92.132812 260.878906 108.144531 276.871094 C 124.152344 292.882812 146.257812 302.796875 170.699219 302.796875 C 195.121094 302.796875 217.246094 292.882812 233.257812 276.871094 C 249.265625 260.863281 259.179688 238.757812 259.179688 214.316406 C 259.179688 210.316406 258.945312 206.554688 258.511719 203.046875 C 258.039062 199.320312 257.316406 195.648438 256.394531 192.027344 C 255.144531 187.234375 258.039062 182.332031 262.835938 181.082031 C 267.628906 179.835938 272.53125 182.730469 273.777344 187.523438 C 274.882812 191.8125 275.75 196.242188 276.328125 200.800781 C 276.910156 205.414062 277.214844 209.9375 277.214844 214.332031 C 277.214844 243.75 265.292969 270.359375 246.027344 289.644531 C 226.761719 308.910156 200.132812 320.832031 170.734375 320.832031 C 141.320312 320.832031 114.710938 308.910156 95.425781 289.644531 C 76.160156 270.378906 64.238281 243.75 64.238281 214.332031 C 64.238281 184.9375 76.160156 158.308594 95.425781 139.042969 C 114.691406 119.773438 141.320312 107.855469 170.734375 107.855469 C 185.101562 107.855469 198.847656 110.730469 211.421875 115.941406 C 221.679688 120.191406 231.085938 125.960938 239.390625 132.945312 L 271.96875 100.363281 C 259.34375 89.113281 244.851562 79.957031 229.058594 73.425781 C 211.132812 65.992188 191.429688 61.902344 170.734375 61.902344 C 128.640625 61.902344 90.523438 78.964844 62.933594 106.550781 C 35.347656 134.140625 18.289062 172.253906 18.289062 214.351562 C 18.289062 256.449219 35.347656 294.566406 62.933594 322.152344 C 90.523438 349.742188 128.640625 366.800781 170.734375 366.800781 C 212.832031 366.800781 250.949219 349.742188 278.535156 322.152344 C 306.125 294.566406 323.183594 256.449219 323.183594 214.351562 C 323.183594 201.886719 321.71875 189.859375 318.96875 178.441406 C 316.109375 166.59375 311.859375 155.269531 306.394531 144.667969 C 304.117188 140.253906 305.851562 134.828125 310.269531 132.566406 C 314.683594 130.285156 320.109375 132.023438 322.371094 136.4375 C 328.464844 148.269531 333.222656 160.929688 336.425781 174.226562 C 339.554688 187.179688 341.21875 200.621094 341.21875 214.371094 C 341.21875 261.441406 322.136719 304.0625 291.289062 334.90625 C 260.429688 365.75 217.824219 384.835938 170.753906 384.835938 C 123.683594 384.835938 81.0625 365.75 50.21875 334.90625 C 19.375 304.042969 0.289062 261.441406 0.289062 214.371094 C 0.289062 167.296875 19.375 124.679688 50.21875 93.832031 C 81.078125 62.988281 123.683594 43.902344 170.753906 43.902344 C 193.785156 43.902344 215.800781 48.5 235.914062 56.839844 C 252.648438 63.765625 268.027344 73.265625 281.539062 84.804688 L 279.351562 48.171875 C 279.0625 45.386719 280.074219 42.511719 282.316406 40.503906 L 324.882812 2.675781 C 325.898438 1.769531 327.128906 1.082031 328.539062 0.703125 C 333.332031 -0.582031 338.273438 2.277344 339.554688 7.070312 L 347.695312 37.425781 L 377.835938 45.496094 C 379.226562 45.839844 380.566406 46.507812 381.726562 47.523438 C 385.433594 50.832031 385.757812 56.511719 382.464844 60.222656 L 344.640625 102.789062 C 342.867188 104.761719 340.242188 105.953125 337.402344 105.773438 L 294.636719 103.222656 L 291.328125 106.53125 L 246.082031 151.757812 L 209.160156 188.699219 C 214.0625 196.027344 216.921875 204.855469 216.921875 214.332031 C 216.921875 227.070312 211.765625 238.613281 203.40625 246.96875 Z M 203.296875 246.96875 " fill-opacity="1" fill-rule="evenodd"/></g><g clip-path="url(#a6b2434575)"><g clip-path="url(#0dee4f7b36)"><g clip-path="url(#7c528ec403)"><g transform="matrix(1, 0, 0, 1, 160, 175)"><g clip-path="url(#d14b919914)"><g clip-path="url(#8aa2120123)"><g clip-path="url(#4a46dcd645)"><g clip-path="url(#b9f131eb08)"><path fill="#000000" d="M -16.441406 32.019531 L 25.496094 -9.917969 L 60.015625 24.601562 L 18.078125 66.539062 Z M -16.441406 32.019531 " fill-opacity="1" fill-rule="nonzero"/></g></g></g></g></g></g></g></g></svg>